<svg width="28" height="47" viewBox="0 0 28 47" fill="none" xmlns="http://www.w3.org/2000/svg">
<path fill-rule="evenodd" clip-rule="evenodd" d="M3.18267 0H24.8267L25.0133 0.257031C25.2 0.495703 25.2093 0.624219 25.2 7.80273L24.9667 8.03223C24.752 8.25254 24.696 8.26172 22.4 8.26172V8.9502C22.4 9.41836 22.4373 9.64785 22.5213 9.67539C22.5773 9.69375 22.9227 9.77637 23.2867 9.86816C23.6507 9.95078 24.2107 10.1619 24.5467 10.3271C24.8827 10.5016 25.3867 10.8137 25.6667 11.034C25.9467 11.2543 26.376 11.6857 26.6093 11.9795C26.8427 12.2824 27.1693 12.7873 27.3373 13.0994C27.496 13.4207 27.7107 13.9898 27.8133 14.3662C28 15.0363 28 15.3484 28 28.301C28 41.3728 28 41.5473 27.8133 42.2725C27.7013 42.6764 27.44 43.3373 27.2253 43.7412C26.9547 44.2553 26.6187 44.6867 26.1333 45.1641C25.6387 45.6506 25.2187 45.9627 24.6867 46.2381C24.276 46.44 23.6507 46.6971 23.2867 46.8072C22.6427 46.9908 22.4747 47 14 47C5.52533 47 5.35733 46.9908 4.71333 46.8072C4.35867 46.6971 3.724 46.44 3.31333 46.2381C2.78133 45.9627 2.36133 45.6506 1.86667 45.1641C1.372 44.6775 1.05467 44.2553 0.774667 43.7412C0.56 43.3373 0.298667 42.6947 0.196 42.3184C0 41.6391 0 41.5197 0 28.3652C0 15.7156 0.00933334 15.073 0.177333 14.4121C0.270667 14.0357 0.494667 13.4299 0.681333 13.0811C0.858667 12.7322 1.19467 12.1998 1.43733 11.9152C1.67067 11.6307 2.10933 11.2084 2.39867 10.9789C2.69733 10.7586 3.25733 10.4281 3.64 10.2445C4.02267 10.0609 4.61067 9.85898 5.55333 9.66621L5.6 8.26172H4.43333C3.31333 8.26172 3.25733 8.25254 2.8 7.80273L2.79067 4.14004C2.78133 0.514062 2.78133 0.477344 2.98667 0.238672L3.18267 0ZM4.19067 6.88477H23.7907V1.37695H4.19067V6.88477ZM6.99067 9.40918C6.99067 10.474 6.98133 10.575 6.78533 10.777C6.61733 10.9422 6.43067 10.9973 5.91733 11.0432C5.56267 11.0799 5.012 11.19 4.704 11.291C4.396 11.4012 3.92 11.6307 3.63067 11.8234C3.35067 12.007 2.94933 12.3283 2.744 12.5303C2.53867 12.7414 2.24933 13.1178 2.1 13.3656C1.95067 13.6135 1.74533 14.0449 1.64267 14.3203C1.49333 14.7334 1.456 15.1281 1.428 16.3674L1.39067 17.9004H2.79067C2.84667 15.1098 2.86533 14.9721 3.09867 14.458C3.248 14.1367 3.556 13.7145 3.84533 13.4299C4.116 13.1637 4.58267 12.8424 4.89067 12.6955L5.45067 12.4385H22.5307C23.4733 12.8883 23.9307 13.1912 24.1547 13.4115C24.3787 13.641 24.696 14.0908 24.8547 14.4121C25.1347 14.9996 25.144 15.0547 25.172 16.4592L25.1907 17.9004H26.5907C26.5347 15.1281 26.488 14.7334 26.3387 14.3203C26.236 14.0449 26.0307 13.6135 25.8813 13.3564C25.732 13.1086 25.4053 12.6955 25.144 12.4385C24.892 12.1906 24.472 11.8602 24.2107 11.7133C23.9587 11.5664 23.52 11.3645 23.2307 11.2543C22.736 11.0707 22.512 11.0707 15.736 11.0248L8.75467 10.9697C8.46533 10.6209 8.39067 10.4189 8.39067 10.3088C8.39067 10.1895 8.49333 9.99668 8.624 9.86816L8.848 9.63867H20.9907V8.26172H6.99067V9.40918ZM4.788 14.4305C4.57333 14.6508 4.35867 14.9904 4.30267 15.1924C4.24667 15.3943 4.19067 16.092 4.19067 16.7346V17.9004H23.7907C23.744 15.174 23.744 15.1648 23.464 14.7701C23.3053 14.5498 22.9973 14.2469 22.7733 14.0908L22.3813 13.8154C7.224 13.7787 5.86133 13.7971 5.544 13.9072C5.33867 13.9807 5.00267 14.2193 4.788 14.4305ZM1.39067 33.2305H26.5907V19.2773H1.39067V33.2305ZM1.41867 38.215C1.44667 41.5748 1.46533 41.8502 1.64267 42.3184C1.74533 42.6029 1.95067 43.0344 2.1 43.2822C2.24933 43.5393 2.604 43.9615 2.884 44.2369C3.17333 44.5031 3.612 44.8428 3.864 44.9805C4.12533 45.1182 4.564 45.3109 4.844 45.4119C5.32933 45.568 5.80533 45.5771 13.9907 45.5771C22.1853 45.5771 22.652 45.568 23.1373 45.4119C23.4267 45.3109 23.884 45.109 24.164 44.9529C24.4533 44.7969 24.892 44.4572 25.144 44.2002C25.4053 43.9523 25.732 43.5393 25.8813 43.2822C26.0307 43.0344 26.2453 42.6029 26.348 42.3184C26.5253 41.8502 26.544 41.584 26.5627 38.215L26.5907 34.6074H25.1907L25.144 41.6299C24.696 42.557 24.3787 43.0068 24.1547 43.2271C23.9307 43.4475 23.4733 43.7596 23.1373 43.9156L22.5307 44.2002H5.45067C4.58267 43.8055 4.116 43.475 3.84533 43.2088C3.556 42.9334 3.248 42.5111 3.09867 42.1807L2.83733 41.6299L2.79067 34.6074H1.38133L1.41867 38.215ZM4.2 37.8479C4.2 39.9041 4.23733 41.2168 4.30267 41.4555C4.368 41.6941 4.564 41.9695 4.86267 42.2541C5.13333 42.5111 5.46 42.7314 5.66533 42.7865C5.88933 42.8416 8.99733 42.8783 14 42.8783C19.9547 42.8783 22.0733 42.8416 22.3533 42.759C22.568 42.6947 22.904 42.4744 23.1467 42.2357C23.3893 41.9971 23.6133 41.6666 23.6787 41.4555C23.7627 41.1984 23.7907 40.1061 23.8 37.8479V34.6166H4.2V37.8479Z" fill="#DD4C2F"/>
</svg>
